<svg id="Group_21" data-name="Group 21" xmlns="http://www.w3.org/2000/svg" width="18.191" height="21.709" viewBox="0 0 18.191 21.709">
  <path id="Path_21" data-name="Path 21" d="M2613.191,666.213a2.642,2.642,0,0,0-2.639-2.639h-3.4a3.024,3.024,0,0,0-5.98,0h-3.531a2.638,2.638,0,0,0-.708,5.18v12.091a1.866,1.866,0,0,0,1.864,1.864h10.9a1.866,1.866,0,0,0,1.864-1.864V668.651A2.643,2.643,0,0,0,2613.191,666.213Zm-9.031-4.355a2.17,2.17,0,0,1,2.119,1.716h-4.238A2.17,2.17,0,0,1,2604.16,661.858Zm6.542,18.988a1.006,1.006,0,0,1-1.005,1.005h-10.9a1.006,1.006,0,0,1-1.005-1.005V668.851h12.764c.05,0,.1,0,.15,0Zm-.15-12.852h-12.764v-.043h-.538a1.78,1.78,0,0,1,.387-3.518h12.914a1.78,1.78,0,0,1,0,3.561Z" transform="translate(-2595 -661)" fill="#fff"/>
  <path id="Path_22" data-name="Path 22" d="M2724.429,920a.429.429,0,0,0-.429.429v7.68a.429.429,0,0,0,.858,0v-7.68A.429.429,0,0,0,2724.429,920Z" transform="translate(-2718.466 -908.888)" fill="#fff"/>
  <path id="Path_23" data-name="Path 23" d="M2799.429,920a.429.429,0,0,0-.429.429v7.68a.429.429,0,1,0,.858,0v-7.68A.429.429,0,0,0,2799.429,920Z" transform="translate(-2790.248 -908.888)" fill="#fff"/>
  <path id="Path_24" data-name="Path 24" d="M2872.429,920a.429.429,0,0,0-.429.429v7.68a.429.429,0,1,0,.858,0v-7.68A.429.429,0,0,0,2872.429,920Z" transform="translate(-2860.116 -908.888)" fill="#fff"/>
</svg>
