<svg id="Group_5" data-name="Group 5" xmlns="http://www.w3.org/2000/svg" width="22.222" height="22.222" viewBox="0 0 22.222 22.222">
  <g id="Group_3" data-name="Group 3" transform="translate(0 0)">
    <path id="Path_27" data-name="Path 27" d="M200.774,212.076h-.434v-5.642a.434.434,0,0,0-.434-.434h-3.472a.434.434,0,0,0-.434.434v1.736a.434.434,0,0,0,.434.434h.434v3.472h-.434a.434.434,0,0,0-.434.434v1.736a.434.434,0,0,0,.434.434h4.34a.434.434,0,0,0,.434-.434V212.51A.434.434,0,0,0,200.774,212.076Zm-.434,1.736h-3.472v-.868h.434a.434.434,0,0,0,.434-.434v-4.34a.434.434,0,0,0-.434-.434h-.434v-.868h2.6v5.642a.434.434,0,0,0,.434.434h.434Z" transform="translate(-187.493 -197.059)" fill="#00bdc8"/>
    <path id="Path_28" data-name="Path 28" d="M217.736,109.472A1.736,1.736,0,1,0,216,107.736,1.738,1.738,0,0,0,217.736,109.472Zm0-2.6a.868.868,0,1,1-.868.868A.869.869,0,0,1,217.736,106.868Z" transform="translate(-206.625 -101.399)" fill="#00bdc8"/>
    <path id="Path_29" data-name="Path 29" d="M11.11,0A11.3,11.3,0,0,0,0,11.111a11.835,11.835,0,0,0,1.577,5.876L.022,21.65a.434.434,0,0,0,.549.549l4.664-1.555a11.832,11.832,0,0,0,5.876,1.577A11.3,11.3,0,0,0,22.221,11.111,11.3,11.3,0,0,0,11.11,0Zm0,21.354A10.856,10.856,0,0,1,5.522,19.8a.434.434,0,0,0-.37-.045L1.12,21.1l1.344-4.033a.434.434,0,0,0-.045-.37A10.855,10.855,0,0,1,.868,11.111,10.38,10.38,0,0,1,11.11.868,10.38,10.38,0,0,1,21.353,11.111,10.38,10.38,0,0,1,11.11,21.354Z" transform="translate(0.001)" fill="#00bdc8"/>
  </g>
</svg>
