<svg xmlns="http://www.w3.org/2000/svg" width="24.871" height="22.029" viewBox="0 0 24.871 22.029">
  <g id="Group_1" data-name="Group 1" transform="translate(0 -29.258)">
    <path id="Path_31" data-name="Path 31" d="M225.023,327.762v.594a.365.365,0,0,0,.73,0v-.594a.365.365,0,0,0-.73,0Z" transform="translate(-214.092 -283.656)" fill="#658fa2"/>
    <path id="Path_32" data-name="Path 32" d="M23.342,45.012a.365.365,0,0,0-.5,0l-.8.743V41.437l.465.438a1.383,1.383,0,0,0,1.515.266,1.408,1.408,0,0,0,.4-2.305L22.046,37.59v-4.5a.853.853,0,0,0-.852-.852H19.605a.853.853,0,0,0-.852.852v1.4l-5-4.708a1.925,1.925,0,0,0-2.637,0l-2.34,2.2a.365.365,0,1,0,.5.531l2.34-2.2a1.194,1.194,0,0,1,1.636,0L23.93,40.367a.673.673,0,0,1,.211.488.67.67,0,0,1-1.13.488l-3-2.827a.365.365,0,1,0-.5.531l1.807,1.7v6.509H19.542v-.665a.365.365,0,0,0-.116-.267l-1.413-1.314a.365.365,0,0,0-.5,0L16.1,46.326a.365.365,0,0,0-.116.267v.665h-.522V44.374a.365.365,0,1,0-.73,0v2.884h-.522v-.665a.365.365,0,0,0-.116-.267l-1.413-1.314a.365.365,0,0,0-.5,0l-1.413,1.314a.365.365,0,0,0-.116.267v.665h-.522V41.263h4.6v1.65a.365.365,0,1,0,.73,0V40.9a.365.365,0,0,0-.365-.365H9.771a.365.365,0,0,0-.365.365v6.36H8.884v-.665a.365.365,0,0,0-.116-.267L7.355,45.012a.365.365,0,0,0-.5,0L5.445,46.326a.365.365,0,0,0-.116.267v.665H3.555V40.749l8.88-8.363,6.011,5.661a.365.365,0,1,0,.5-.531l-6.262-5.9a.365.365,0,0,0-.5,0L1.86,41.343a.653.653,0,0,1-.725.127.653.653,0,0,1-.4-.615.673.673,0,0,1,.211-.488l7.275-6.851a.365.365,0,0,0-.5-.532L.44,39.836a1.408,1.408,0,0,0,.4,2.305,1.383,1.383,0,0,0,1.515-.266l.465-.438v4.318l-.8-.743a.365.365,0,0,0-.5,0L.116,46.326A.365.365,0,0,0,0,46.593v4.329a.365.365,0,0,0,.365.365H3.19a.365.365,0,0,0,.365-.365V49.96H5.329v.962a.365.365,0,0,0,.365.365H8.519a.365.365,0,0,0,.365-.365V49.96h1.774v.962a.365.365,0,0,0,.365.365h2.825a.365.365,0,0,0,.365-.365V49.96h1.774v.962a.365.365,0,0,0,.365.365h2.825a.365.365,0,0,0,.365-.365V49.96h1.774v.962a.365.365,0,0,0,.365.365h2.825a.365.365,0,0,0,.365-.365V46.593a.365.365,0,0,0-.116-.267ZM19.483,33.087a.122.122,0,0,1,.122-.122h1.589a.122.122,0,0,1,.122.122V36.9l-1.833-1.726ZM2.825,50.557H.73v-3.8l1.048-.975,1.048.975v3.8Zm.73-1.327V47.988H5.329V49.23Zm4.6,1.327h-2.1v-3.8l1.048-.975,1.048.975v3.8Zm.73-1.327V47.988h1.774V49.23Zm4.6,1.327h-2.1v-3.8l1.048-.975,1.048.975Zm.73-1.327V47.988h1.774V49.23Zm4.6,1.327h-2.1v-3.8l1.048-.975,1.048.975v3.8Zm.73-1.327V47.988h1.774V49.23Zm4.6,1.327h-2.1v-3.8l1.048-.975,1.048.975v3.8Z" fill="#658fa2"/>
  </g>
</svg>
