<svg xmlns="http://www.w3.org/2000/svg" width="27.7" height="16.952" viewBox="0 0 27.7 16.952">
  <g id="Group_96" data-name="Group 96" transform="translate(-737.35 -334.924)">
    <g id="Group_88" data-name="Group 88" transform="translate(748.638 339.555)">
      <g id="Group_87" data-name="Group 87" transform="translate(0 0)">
        <path id="Path_252" data-name="Path 252" d="M778.646,353.613a1.1,1.1,0,1,1,1.1-1.1A1.1,1.1,0,0,1,778.646,353.613Zm0-1.934a.835.835,0,1,0,.835.835A.836.836,0,0,0,778.646,351.68Z" transform="translate(-777.548 -351.416)" fill="#658fa2"/>
      </g>
    </g>
    <g id="Group_89" data-name="Group 89" transform="translate(737.35 334.924)">
      <path id="Path_253" data-name="Path 253" d="M759.413,351.875a.616.616,0,0,1-.615-.614V349.35H747.722a.458.458,0,0,1,0-.915H759.1a.615.615,0,0,1,.614.614v1.485l4.3-4.3-4.479-4.479v1.485a.615.615,0,0,1-.614.614H743.786v2.269a.614.614,0,0,1-1.055.427l-5.208-5.379a.617.617,0,0,1,.007-.861l5.209-5.209a.614.614,0,0,1,1.048.434v2.094h11.443a.458.458,0,1,1,0,.915H743.484a.615.615,0,0,1-.614-.614v-1.668l-4.484,4.484,4.484,4.631v-1.825a.615.615,0,0,1,.614-.614h15.131V341.03a.614.614,0,0,1,1.048-.434l5.207,5.207a.615.615,0,0,1,0,.868l-5.024,5.024A.612.612,0,0,1,759.413,351.875Z" transform="translate(-737.35 -334.924)" fill="#658fa2"/>
    </g>
    <g id="Group_90" data-name="Group 90" transform="translate(753.489 345.505)">
      <path id="Path_254" data-name="Path 254" d="M799.13,373.523h-3.845a.458.458,0,0,1,0-.916h3.845a.458.458,0,0,1,0,.916Z" transform="translate(-794.827 -372.607)" fill="#658fa2"/>
    </g>
    <g id="Group_91" data-name="Group 91" transform="translate(744.335 340.378)">
      <path id="Path_255" data-name="Path 255" d="M766.528,355.265h-3.845a.458.458,0,1,1,0-.915h3.845a.458.458,0,0,1,0,.915Z" transform="translate(-762.225 -354.35)" fill="#658fa2"/>
    </g>
    <g id="Group_92" data-name="Group 92" transform="translate(755.137 336.167)">
      <path id="Path_256" data-name="Path 256" d="M802.618,343.2a1.922,1.922,0,1,1,1.922-1.922A1.924,1.924,0,0,1,802.618,343.2Zm0-2.929a1.007,1.007,0,1,0,1.007,1.007A1.008,1.008,0,0,0,802.618,340.269Z" transform="translate(-800.696 -339.353)" fill="#658fa2"/>
    </g>
    <g id="Group_93" data-name="Group 93" transform="translate(744.152 346.787)">
      <path id="Path_257" data-name="Path 257" d="M763.5,381.017a1.922,1.922,0,1,1,1.922-1.922A1.925,1.925,0,0,1,763.5,381.017Zm0-2.929a1.007,1.007,0,1,0,1.007,1.007A1.008,1.008,0,0,0,763.5,378.087Z" transform="translate(-761.573 -377.172)" fill="#658fa2"/>
    </g>
    <g id="Group_94" data-name="Group 94" transform="translate(751.109 344.589)">
      <path id="Path_258" data-name="Path 258" d="M787.816,372.276a1.465,1.465,0,1,1,1.465-1.465A1.466,1.466,0,0,1,787.816,372.276Zm0-2.014a.549.549,0,1,0,.549.549A.55.55,0,0,0,787.816,370.262Z" transform="translate(-786.351 -369.347)" fill="#658fa2"/>
    </g>
    <g id="Group_95" data-name="Group 95" transform="translate(748.363 339.28)">
      <path id="Path_259" data-name="Path 259" d="M778.035,353.367A1.465,1.465,0,1,1,779.5,351.9,1.466,1.466,0,0,1,778.035,353.367Zm0-2.014a.549.549,0,1,0,.549.549A.55.55,0,0,0,778.035,351.353Z" transform="translate(-776.57 -350.438)" fill="#658fa2"/>
    </g>
  </g>
</svg>
