<svg xmlns="http://www.w3.org/2000/svg" width="21.481" height="22.095" viewBox="0 0 21.481 22.095">
  <g id="Group_72" data-name="Group 72" transform="translate(-441 -324)">
    <g id="Group_68" data-name="Group 68" transform="translate(441 324)">
      <path id="Path_236" data-name="Path 236" d="M444.836,331.672a3.836,3.836,0,1,1,3.836-3.836A3.84,3.84,0,0,1,444.836,331.672Zm0-6.751a2.915,2.915,0,1,0,2.915,2.915A2.919,2.919,0,0,0,444.836,324.921Z" transform="translate(-441 -324)" fill="#fff"/>
    </g>
    <g id="Group_69" data-name="Group 69" transform="translate(454.809 338.423)">
      <path id="Path_237" data-name="Path 237" d="M489.836,378.672a3.836,3.836,0,1,1,3.836-3.836A3.84,3.84,0,0,1,489.836,378.672Zm0-6.751a2.915,2.915,0,1,0,2.915,2.915A2.919,2.919,0,0,0,489.836,371.921Z" transform="translate(-486 -371)" fill="#fff"/>
    </g>
    <g id="Group_70" data-name="Group 70" transform="translate(449.592 327.376)">
      <path id="Path_238" data-name="Path 238" d="M478.974,345.434a.46.46,0,0,1-.46-.46v-7.058a1.808,1.808,0,0,0-1.995-1.995H469.46a.46.46,0,1,1,0-.921h7.058a2.71,2.71,0,0,1,2.915,2.915v7.058A.46.46,0,0,1,478.974,345.434Z" transform="translate(-469 -335)" fill="#fff"/>
    </g>
    <g id="Group_71" data-name="Group 71" transform="translate(444.222 332.132)">
      <path id="Path_239" data-name="Path 239" d="M461.473,360.934h-7.058a2.71,2.71,0,0,1-2.915-2.915V350.96a.46.46,0,1,1,.921,0v7.058a1.808,1.808,0,0,0,1.995,1.995h7.058a.46.46,0,1,1,0,.921Z" transform="translate(-451.5 -350.5)" fill="#fff"/>
    </g>
  </g>
</svg>
