<svg xmlns="http://www.w3.org/2000/svg" width="17" height="17" viewBox="0 0 17 17">
  <g id="Group_113" data-name="Group 113" transform="translate(-146 -343)">
    <g id="Group_111" data-name="Group 111" transform="translate(146 343)">
      <path id="Path_271" data-name="Path 271" d="M154.5,360a8.5,8.5,0,1,1,8.5-8.5A8.51,8.51,0,0,1,154.5,360Zm0-15.509a7.009,7.009,0,1,0,7.009,7.009A7.017,7.017,0,0,0,154.5,344.491Z" transform="translate(-146 -343)" fill="#658fa2"/>
    </g>
    <g id="Group_112" data-name="Group 112" transform="translate(150.175 347.772)">
      <path id="Path_272" data-name="Path 272" d="M163.8,366.482l-3.555-3.2a.745.745,0,1,1,1-1.108l2.41,2.169,4.276-5.077a.745.745,0,1,1,1.14.96Z" transform="translate(-160 -359)" fill="#658fa2"/>
    </g>
  </g>
</svg>
