<svg xmlns="http://www.w3.org/2000/svg" width="22.546" height="15.873" viewBox="0 0 22.546 15.873">
  <g id="Group_102" data-name="Group 102" transform="translate(-290.092 -342.442)">
    <g id="Group_97" data-name="Group 97" transform="translate(290.092 342.442)">
      <path id="Path_260" data-name="Path 260" d="M301.05,358.315c-2.73,0-5.453-1.379-7.889-4a20.172,20.172,0,0,1-2.942-4.093l-.127-.249.159-.229a23.058,23.058,0,0,1,3.123-3.483c2.551-2.33,5.2-3.646,7.676-3.806,2.531-.163,5.228,1.055,8.018,3.62a24.96,24.96,0,0,1,3.4,3.858l.165.242-.146.254a20.5,20.5,0,0,1-3.036,3.852c-2.557,2.557-5.384,3.951-8.175,4.03Q301.165,358.315,301.05,358.315Zm-9.864-8.269c.752,1.326,4.54,7.489,10.069,7.333s9.461-5.88,10.274-7.162c-.941-1.278-5.536-7.143-10.417-6.831C296.211,343.7,292.059,348.883,291.186,350.046Z" transform="translate(-290.092 -342.442)" fill="#658fa2"/>
    </g>
    <g id="Group_98" data-name="Group 98" transform="translate(295.018 344.321)">
      <path id="Path_261" data-name="Path 261" d="M314.489,361.56a6.063,6.063,0,1,1,6.063-6.063A6.07,6.07,0,0,1,314.489,361.56Zm0-11.193a5.13,5.13,0,1,0,5.13,5.13A5.136,5.136,0,0,0,314.489,350.368Z" transform="translate(-308.426 -349.435)" fill="#658fa2"/>
    </g>
    <g id="Group_99" data-name="Group 99" transform="translate(298.19 347.492)">
      <path id="Path_262" data-name="Path 262" d="M323.12,367.02a2.892,2.892,0,1,1,2.892-2.892A2.895,2.895,0,0,1,323.12,367.02Zm0-4.85a1.959,1.959,0,1,0,1.959,1.958A1.961,1.961,0,0,0,323.12,362.17Z" transform="translate(-320.229 -361.237)" fill="#658fa2"/>
    </g>
    <g id="Group_100" data-name="Group 100" transform="translate(303.04 349.917)">
      <path id="Path_263" data-name="Path 263" d="M341.918,371.2h-3.171a.466.466,0,1,1,0-.933h3.171a.466.466,0,1,1,0,.933Z" transform="translate(-338.28 -370.263)" fill="#658fa2"/>
    </g>
    <g id="Group_101" data-name="Group 101" transform="translate(295.112 350.01)">
      <path id="Path_264" data-name="Path 264" d="M312.411,371.543h-3.171a.466.466,0,1,1,0-.933h3.171a.466.466,0,1,1,0,.933Z" transform="translate(-308.773 -370.61)" fill="#658fa2"/>
    </g>
  </g>
</svg>
