<svg xmlns="http://www.w3.org/2000/svg" width="15.44" height="14.089" viewBox="0 0 15.44 14.089">
  <g id="Group_197" data-name="Group 197" transform="translate(0 -22.397)">
    <g id="Group_194" data-name="Group 194" transform="translate(4.499 27.824)">
      <g id="Group_193" data-name="Group 193" transform="translate(0 0)">
        <path id="Path_487" data-name="Path 487" d="M159.945,203.606l-1.652-1.165a.453.453,0,0,0-.713.37v.712h-7.932a.452.452,0,1,0,0,.9h7.932v.712a.453.453,0,0,0,.713.37l1.652-1.165A.453.453,0,0,0,159.945,203.606Z" transform="translate(-149.195 -202.358)" fill="#1a3098"/>
      </g>
    </g>
    <g id="Group_196" data-name="Group 196" transform="translate(0 22.397)">
      <g id="Group_195" data-name="Group 195" transform="translate(0 0)">
        <path id="Path_488" data-name="Path 488" d="M12.981,32.346a.452.452,0,0,0-.618.165,6.14,6.14,0,1,1,0-6.139.452.452,0,1,0,.783-.453,7.045,7.045,0,1,0,0,7.045A.452.452,0,0,0,12.981,32.346Z" transform="translate(0 -22.397)" fill="#1a3098"/>
      </g>
    </g>
  </g>
</svg>
