<svg xmlns="http://www.w3.org/2000/svg" width="15.921" height="14.866" viewBox="0 0 15.921 14.866">
  <g id="Group_192" data-name="Group 192" transform="translate(-27.893 -157.812)">
    <path id="Path_482" data-name="Path 482" d="M40.928,405.245H41.8v1.42a2.56,2.56,0,0,1-2.557,2.557H31.576a2.56,2.56,0,0,1-2.541-2.273H27.893a3.7,3.7,0,0,0,3.683,3.409h7.671a3.7,3.7,0,0,0,3.693-3.693v-1.42h.875l-1.443-2.061Z" transform="translate(0 -237.681)" fill="#1a3098"/>
    <g id="Group_191" data-name="Group 191" transform="translate(31.059 157.812)">
      <g id="Group_189" data-name="Group 189" transform="translate(4.097 6.964)">
        <path id="Path_483" data-name="Path 483" d="M263.991,386.206a.357.357,0,0,0,.357-.357v-1.481a.357.357,0,0,0-.715,0v1.481A.358.358,0,0,0,263.991,386.206Z" transform="translate(-263.508 -383.885)" fill="#1a3098"/>
        <path id="Path_484" data-name="Path 484" d="M260.116,382.457a.483.483,0,0,1-.483-.483v-1.481a.483.483,0,1,1,.966,0v1.481A.483.483,0,0,1,260.116,382.457Zm0-2.2a.232.232,0,0,0-.232.232v1.481a.232.232,0,1,0,.464,0v-1.481A.232.232,0,0,0,260.116,380.261Z" transform="translate(-259.633 -380.01)" fill="#1a3098"/>
      </g>
      <g id="Group_190" data-name="Group 190">
        <path id="Path_485" data-name="Path 485" d="M141.456,165.733h-1.692v-1.741a2.417,2.417,0,0,0-4.81,0v1.741h-1.692a.358.358,0,0,0-.357.358v4.572a3.356,3.356,0,0,0,3.352,3.352h2.206a3.356,3.356,0,0,0,3.352-3.352v-4.572A.358.358,0,0,0,141.456,165.733Zm-5.787-1.741a1.708,1.708,0,0,1,3.38,0v1.741h-3.38Zm5.43,6.671a2.64,2.64,0,0,1-2.637,2.637h-2.206a2.64,2.64,0,0,1-2.637-2.637v-4.214H141.1Z" transform="translate(-132.779 -161.687)" fill="#1a3098"/>
        <path id="Path_486" data-name="Path 486" d="M134.587,170.265h-2.206a3.481,3.481,0,0,1-3.477-3.477v-4.572a.483.483,0,0,1,.483-.483h1.567v-1.616a2.542,2.542,0,0,1,5.061,0v1.616h1.567a.484.484,0,0,1,.483.483v4.572A3.481,3.481,0,0,1,134.587,170.265Zm-5.2-8.281a.232.232,0,0,0-.232.232v4.572a3.23,3.23,0,0,0,3.226,3.226h2.206a3.23,3.23,0,0,0,3.226-3.226v-4.572a.233.233,0,0,0-.232-.232h-1.817v-1.867a2.292,2.292,0,0,0-4.56,0v1.867Zm5.2,7.566h-2.206a2.765,2.765,0,0,1-2.762-2.762v-4.34h7.73v4.34A2.765,2.765,0,0,1,134.587,169.55ZM129.87,162.7v4.089a2.514,2.514,0,0,0,2.511,2.511h2.206a2.514,2.514,0,0,0,2.511-2.511V162.7Zm5.43-.715h-3.631v-1.867a1.832,1.832,0,0,1,3.631,0Zm-3.38-.251h3.13v-1.616a1.584,1.584,0,0,0-3.13,0Z" transform="translate(-128.904 -157.812)" fill="#1a3098"/>
      </g>
    </g>
  </g>
</svg>
