<svg xmlns="http://www.w3.org/2000/svg" width="15.44" height="13.136" viewBox="0 0 15.44 13.136">
  <g id="Group_187" data-name="Group 187" transform="translate(-0.002 -137.59)">
    <path id="Path_477" data-name="Path 477" d="M10.385,144.55a6.651,6.651,0,0,0-1.4-.746,3.565,3.565,0,0,0,1.16-2.352,4.438,4.438,0,0,0-.245-1.621,3.571,3.571,0,1,0-5.73,3.959A6.736,6.736,0,0,0,.1,147.981a2.1,2.1,0,0,0,2,2.745H8.2a.7.7,0,0,0,0-1.4H2.1a.7.7,0,0,1-.667-.915,5.4,5.4,0,0,1,5.134-3.655,5.239,5.239,0,0,1,3.011.944.7.7,0,1,0,.8-1.149Zm-3.8-1.217a2.171,2.171,0,1,1,2.171-2.171A2.174,2.174,0,0,1,6.587,143.333Z" transform="translate(0)" fill="#1a3098"/>
    <path id="Path_478" data-name="Path 478" d="M257.048,325.657a.7.7,0,0,1-.7.7h-1.926v1.926a.7.7,0,1,1-1.4,0v-1.926H251.1a.7.7,0,0,1,0-1.4h1.926V323.03a.7.7,0,0,1,1.4,0v1.926h1.926A.7.7,0,0,1,257.048,325.657Z" transform="translate(-241.607 -178.257)" fill="#1a3098"/>
  </g>
</svg>
