<svg xmlns="http://www.w3.org/2000/svg" width="14.942" height="14.832" viewBox="0 0 14.942 14.832">
  <g id="Group_188" data-name="Group 188" transform="translate(1.758 -86.1)">
    <path id="Path_479" data-name="Path 479" d="M104.9,156.979a5.347,5.347,0,0,0-1.123-.6,2.866,2.866,0,0,0,.932-1.891,3.569,3.569,0,0,0-.2-1.3,2.871,2.871,0,1,0-4.607,3.183,5.415,5.415,0,0,0-3.27,3.369,1.689,1.689,0,0,0,1.608,2.207h4.9a.563.563,0,0,0,0-1.126h-4.9a.563.563,0,0,1-.536-.736,4.344,4.344,0,0,1,4.127-2.939,4.211,4.211,0,0,1,2.421.759.563.563,0,1,0,.644-.923ZM101.844,156a1.745,1.745,0,1,1,1.745-1.745A1.747,1.747,0,0,1,101.844,156Z" transform="translate(-95.534 -63.441)" fill="#1a3098"/>
    <path id="Path_480" data-name="Path 480" d="M9.975,384.774h.787v1.279a2.3,2.3,0,0,1-2.3,2.3h-6.9a2.3,2.3,0,0,1-2.287-2.046H-1.758a3.329,3.329,0,0,0,3.315,3.069h6.9a3.328,3.328,0,0,0,3.324-3.324v-1.279h.787l-1.3-1.856Z" transform="translate(0 -288.445)" fill="#1a3098"/>
    <path id="Path_481" data-name="Path 481" d="M22.506,90.7h-.787V89.424a2.3,2.3,0,0,1,2.3-2.3h6.9a2.3,2.3,0,0,1,2.287,2.046h1.027A3.329,3.329,0,0,0,30.924,86.1h-6.9A3.328,3.328,0,0,0,20.7,89.424V90.7h-.787l1.3,1.855Z" transform="translate(-21.055)" fill="#1a3098"/>
  </g>
</svg>
